<svg version="1" xmlns="http://www.w3.org/2000/svg" width="1435" height="383">
  <path fill="none" pointer-events="none" d="M0 0H1435V383H0z"/>
  <path d="M 205 0 L 210 0 Q 210 11 206.625 20.875 Q 203.25 30.75 196.75 38.375 Q 190.25 46 180.75 50.5 A 46.376 46.376 0 0 1 167.097 54.468 A 59.702 59.702 0 0 1 159 55 A 57.887 57.887 0 0 1 158.801 55 Q 151.086 54.973 142.914 52.89 A 84.829 84.829 0 0 1 132.25 49.375 Q 118.25 43.75 104.25 37 Q 90.25 30.25 76.625 24.625 A 80.325 80.325 0 0 0 64.41 20.635 A 58.449 58.449 0 0 0 51 19 Q 40.5 19 32.125 22.875 Q 23.75 26.75 17.75 33.5 A 47.151 47.151 0 0 0 9.141 47.668 A 54.362 54.362 0 0 0 8.5 49.375 Q 5.25 58.5 5 69 L 0 69 Q 0 58.25 3.375 48.25 A 53.003 53.003 0 0 1 13.149 30.744 A 51.232 51.232 0 0 1 13.25 30.625 Q 19.75 23 29.25 18.5 A 46.376 46.376 0 0 1 42.903 14.532 A 59.702 59.702 0 0 1 51 14 A 64.975 64.975 0 0 1 67.003 16.089 A 84.751 84.751 0 0 1 77.75 19.625 Q 91.75 25.25 105.75 32 Q 119.75 38.75 133.375 44.375 A 80.325 80.325 0 0 0 145.591 48.365 A 58.449 58.449 0 0 0 159 50 Q 169.5 50 177.875 46.125 Q 186.25 42.25 192.25 35.5 A 47.151 47.151 0 0 0 200.86 21.332 A 54.362 54.362 0 0 0 201.5 19.625 Q 204.75 10.5 205 0 Z" transform="matrix(2.93726 0 0 2.93726 407 163)"/>
  <path d="M 78.2 72 L 77 72 L 77 23 L 77.3 23 Q 78 23 78 23.8 L 78.15 33.05 A 27.03 27.03 0 0 1 81.752 28.114 A 22.511 22.511 0 0 1 85.1 25.15 A 15.409 15.409 0 0 1 90.765 22.553 A 14.771 14.771 0 0 1 94 22.2 A 15.31 15.31 0 0 1 97.898 22.669 A 10.725 10.725 0 0 1 103.225 25.85 A 14.232 14.232 0 0 1 105.837 30.073 Q 106.592 31.909 107.024 34.14 A 29.127 29.127 0 0 1 107.35 36.25 A 22.045 22.045 0 0 1 108.169 32.925 A 16.971 16.971 0 0 1 109.425 30.05 A 16.365 16.365 0 0 1 111.513 27.089 A 14.099 14.099 0 0 1 113 25.65 Q 115.1 23.9 117.675 23.05 Q 120.25 22.2 123 22.2 A 17.16 17.16 0 0 1 126.676 22.58 A 14.255 14.255 0 0 1 129.25 23.4 Q 132.05 24.6 134 26.925 A 14.847 14.847 0 0 1 136.007 30.083 A 19.55 19.55 0 0 1 137.025 32.7 A 22.944 22.944 0 0 1 137.864 36.648 A 31.5 31.5 0 0 1 138.1 40.6 L 138.1 72 L 136.9 72 L 136.9 40.6 A 31.582 31.582 0 0 0 136.546 35.707 Q 136.144 33.152 135.287 31.096 A 13.884 13.884 0 0 0 133.275 27.675 A 11.788 11.788 0 0 0 125.577 23.385 A 17.298 17.298 0 0 0 123 23.2 Q 120.05 23.2 117.325 24.3 Q 114.6 25.4 112.5 27.575 A 14.793 14.793 0 0 0 110.11 30.893 A 18.625 18.625 0 0 0 109.15 33 A 18.016 18.016 0 0 0 108.184 36.704 Q 107.9 38.527 107.9 40.6 L 107.9 72 L 106.7 72 L 106.7 40.6 A 34.894 34.894 0 0 0 106.506 36.833 A 25.463 25.463 0 0 0 105.875 33.275 Q 105.05 30.05 103.425 27.8 Q 101.8 25.55 99.4 24.375 A 11.432 11.432 0 0 0 95.949 23.339 A 14.639 14.639 0 0 0 93.9 23.2 A 14.073 14.073 0 0 0 85.237 26.178 A 17.323 17.323 0 0 0 85.175 26.225 A 23.337 23.337 0 0 0 81.065 30.296 A 32.125 32.125 0 0 0 78.2 34.6 L 78.2 72 Z M 671.9 2 L 712.8 2 L 712.8 3.1 L 673.1 3.1 L 673.1 35.9 L 706.8 35.9 L 706.8 37 L 673.1 37 L 673.1 70.9 L 712.9 70.9 L 712.8 72 L 671.9 72 L 671.9 2 Z M 38.7 8.1 L 38.5 8.4 A 1.05 1.05 0 0 1 38.339 8.558 Q 38.156 8.7 37.95 8.7 A 0.631 0.631 0 0 1 37.695 8.636 Q 37.339 8.475 36.796 7.913 A 9.835 9.835 0 0 1 36.575 7.675 A 9.572 9.572 0 0 0 35.839 6.95 Q 35.04 6.237 33.875 5.45 Q 32.1 4.25 29.3 3.225 Q 26.5 2.2 22.3 2.2 A 23.805 23.805 0 0 0 18.363 2.511 A 17.956 17.956 0 0 0 14.675 3.525 Q 11.35 4.85 9.1 7.05 Q 6.85 9.25 5.675 12.15 Q 4.5 15.05 4.5 18.2 A 17.204 17.204 0 0 0 4.74 21.158 Q 5.115 23.305 6.075 24.95 Q 7.65 27.65 10.2 29.5 A 23.176 23.176 0 0 0 14.253 31.836 A 27.645 27.645 0 0 0 16.05 32.575 Q 19.35 33.8 22.75 34.925 Q 26.15 36.05 29.45 37.3 A 24.541 24.541 0 0 1 33.622 39.331 A 21.285 21.285 0 0 1 35.3 40.475 Q 37.85 42.4 39.425 45.225 Q 40.839 47.762 40.984 51.448 A 21.793 21.793 0 0 1 41 52.3 A 22.539 22.539 0 0 1 40.184 58.427 A 20.591 20.591 0 0 1 39.55 60.325 Q 38.1 64.05 35.35 66.825 A 19.003 19.003 0 0 1 30.173 70.502 A 22.721 22.721 0 0 1 28.6 71.2 A 21.967 21.967 0 0 1 23.462 72.536 A 28.636 28.636 0 0 1 19.5 72.8 Q 15.95 72.8 13.15 72.175 A 22.912 22.912 0 0 1 9.525 71.056 A 19.924 19.924 0 0 1 8.025 70.375 Q 5.7 69.2 3.75 67.525 A 31.746 31.746 0 0 1 0.795 64.618 A 36.301 36.301 0 0 1 0 63.7 L 0.2 63.5 A 4.156 4.156 0 0 1 0.289 63.414 Q 0.381 63.327 0.45 63.275 Q 0.534 63.212 0.726 63.202 A 1.445 1.445 0 0 1 0.8 63.2 Q 1.1 63.2 1.675 63.825 A 23.961 23.961 0 0 0 1.989 64.159 Q 2.428 64.619 3.044 65.223 A 79.509 79.509 0 0 0 3.25 65.425 A 24.692 24.692 0 0 0 4.275 66.367 Q 4.827 66.847 5.466 67.354 A 41.665 41.665 0 0 0 5.65 67.5 A 15.986 15.986 0 0 0 7.2 68.569 Q 8.05 69.088 9.05 69.575 Q 11.05 70.55 13.625 71.175 A 21.199 21.199 0 0 0 16.381 71.644 Q 17.85 71.8 19.5 71.8 A 25.89 25.89 0 0 0 24.081 71.412 A 19.867 19.867 0 0 0 28.125 70.25 A 20.301 20.301 0 0 0 32.573 67.761 A 17.814 17.814 0 0 0 34.525 66.075 Q 37.15 63.45 38.525 59.95 Q 39.9 56.45 39.9 52.5 A 17.845 17.845 0 0 0 39.707 49.807 Q 39.487 48.365 39.015 47.144 A 10.698 10.698 0 0 0 38.875 46.8 A 12.919 12.919 0 0 0 36.629 43.231 A 12.174 12.174 0 0 0 36.1 42.675 A 16.963 16.963 0 0 0 32.456 39.959 A 19.164 19.164 0 0 0 32.025 39.725 Q 29.7 38.5 27.05 37.525 Q 24.4 36.55 21.65 35.725 Q 18.9 34.9 16.25 33.9 A 39.357 39.357 0 0 1 11.861 31.939 A 35.776 35.776 0 0 1 11.275 31.625 Q 8.95 30.35 7.2 28.525 A 13.386 13.386 0 0 1 4.693 24.795 A 15.489 15.489 0 0 1 4.425 24.175 Q 3.464 21.808 3.404 18.628 A 22.648 22.648 0 0 1 3.4 18.2 Q 3.4 14.85 4.65 11.775 Q 5.9 8.7 8.3 6.35 A 16.758 16.758 0 0 1 12.331 3.463 A 20.579 20.579 0 0 1 14.225 2.6 A 19.389 19.389 0 0 1 18.643 1.449 A 25.754 25.754 0 0 1 22.3 1.2 A 26.847 26.847 0 0 1 26.965 1.587 A 20.325 20.325 0 0 1 31.325 2.85 A 20.288 20.288 0 0 1 36.046 5.674 A 26.144 26.144 0 0 1 38.7 8.1 Z M 321.5 38.2 L 310.6 38.2 L 310.6 72 L 309.4 72 L 309.4 2 L 325.6 2 A 45.316 45.316 0 0 1 331.948 2.415 Q 338.386 3.328 342.425 6.25 A 13.655 13.655 0 0 1 347.781 14.571 A 21.984 21.984 0 0 1 348.3 19.5 A 18.866 18.866 0 0 1 347.749 24.138 A 16.029 16.029 0 0 1 346.65 27.175 Q 345 30.6 342 33 A 20.979 20.979 0 0 1 337.379 35.777 A 26.023 26.023 0 0 1 334.825 36.75 Q 330.65 38.1 325.6 38.2 Q 326.1 38.4 326.5 38.725 A 6.284 6.284 0 0 1 326.975 39.155 A 7.94 7.94 0 0 1 327.3 39.5 L 354.6 72 L 353.8 72 A 3.497 3.497 0 0 1 353.543 71.991 Q 353.314 71.974 353.15 71.925 A 0.645 0.645 0 0 1 353.002 71.856 Q 352.86 71.769 352.682 71.593 A 4.184 4.184 0 0 1 352.5 71.4 L 326.3 40 A 8.018 8.018 0 0 0 325.911 39.557 Q 325.71 39.346 325.515 39.176 A 4.565 4.565 0 0 0 325.425 39.1 Q 325 38.75 324.475 38.55 A 4.152 4.152 0 0 0 323.906 38.381 Q 323.6 38.313 323.25 38.275 A 11.429 11.429 0 0 0 322.689 38.23 Q 322.427 38.215 322.129 38.208 A 24.977 24.977 0 0 0 321.5 38.2 Z M 833.4 23 L 834.6 23 L 834.6 54.4 A 32.015 32.015 0 0 0 834.811 58.167 A 23.551 23.551 0 0 0 835.5 61.725 A 16.031 16.031 0 0 0 836.776 64.961 A 13.107 13.107 0 0 0 838.275 67.2 Q 840.15 69.45 842.95 70.625 A 14.342 14.342 0 0 0 846.012 71.506 Q 847.467 71.763 849.123 71.795 A 24.593 24.593 0 0 0 849.6 71.8 Q 855.35 71.8 860.175 68.75 A 27.633 27.633 0 0 0 866.214 63.518 A 34.655 34.655 0 0 0 868.7 60.3 L 868.7 23 L 869.9 23 L 869.9 72 L 869.6 72 Q 868.9 72 868.9 71.2 L 868.7 61.8 Q 866.95 64.3 864.85 66.35 Q 862.75 68.4 860.3 69.825 Q 857.85 71.25 855.15 72.025 Q 852.45 72.8 849.6 72.8 Q 843.514 72.8 839.742 70.128 A 12.054 12.054 0 0 1 837.4 67.95 Q 833.4 63.1 833.4 54.4 L 833.4 23 Z M 468.4 23 L 469.6 23 L 469.6 54.4 A 32.015 32.015 0 0 0 469.811 58.167 A 23.551 23.551 0 0 0 470.5 61.725 A 16.031 16.031 0 0 0 471.776 64.961 A 13.107 13.107 0 0 0 473.275 67.2 Q 475.15 69.45 477.95 70.625 A 14.342 14.342 0 0 0 481.012 71.506 Q 482.467 71.763 484.123 71.795 A 24.593 24.593 0 0 0 484.6 71.8 Q 490.35 71.8 495.175 68.75 A 27.633 27.633 0 0 0 501.214 63.518 A 34.655 34.655 0 0 0 503.7 60.3 L 503.7 23 L 504.9 23 L 504.9 72 L 504.6 72 Q 503.9 72 503.9 71.2 L 503.7 61.8 Q 501.95 64.3 499.85 66.35 Q 497.75 68.4 495.3 69.825 Q 492.85 71.25 490.15 72.025 Q 487.45 72.8 484.6 72.8 Q 478.514 72.8 474.742 70.128 A 12.054 12.054 0 0 1 472.4 67.95 Q 468.4 63.1 468.4 54.4 L 468.4 23 Z M 721.9 72 L 740.2 47.1 L 722.6 23 L 723.7 23 A 0.923 0.923 0 0 1 723.941 23.03 A 0.635 0.635 0 0 1 724.3 23.275 A 26.198 26.198 0 0 1 724.394 23.405 Q 724.484 23.53 724.548 23.623 A 6.288 6.288 0 0 1 724.6 23.7 L 741.05 46.45 A 3.846 3.846 0 0 1 741.148 46.265 A 2.792 2.792 0 0 1 741.248 46.102 Q 741.35 45.95 741.5 45.7 L 757.5 23.7 A 2.404 2.404 0 0 1 757.787 23.317 A 2.77 2.77 0 0 1 757.875 23.225 Q 758.1 23 758.4 23 L 759.5 23 L 741.85 46.95 L 760.2 72 L 759.1 72 A 0.923 0.923 0 0 1 758.859 71.97 A 0.635 0.635 0 0 1 758.5 71.725 A 26.198 26.198 0 0 1 758.406 71.595 Q 758.316 71.47 758.252 71.377 A 6.288 6.288 0 0 1 758.2 71.3 L 741 47.6 A 0.764 0.764 0 0 1 740.95 47.752 Q 740.885 47.902 740.747 48.101 A 4.587 4.587 0 0 1 740.6 48.3 L 723.9 71.3 A 12.112 12.112 0 0 1 723.55 71.718 A 11.035 11.035 0 0 1 723.5 71.775 A 0.659 0.659 0 0 1 723.251 71.954 A 0.67 0.67 0 0 1 723 72 L 721.9 72 Z M 598.7 27 L 598.5 27.3 A 0.819 0.819 0 0 1 598.365 27.458 A 0.533 0.533 0 0 1 598 27.6 A 0.716 0.716 0 0 1 597.761 27.552 Q 597.413 27.427 596.882 26.974 A 7.731 7.731 0 0 1 596.825 26.925 Q 596.05 26.25 594.575 25.425 A 14.573 14.573 0 0 0 593.249 24.775 Q 592.584 24.488 591.814 24.218 A 28.712 28.712 0 0 0 590.85 23.9 A 13.951 13.951 0 0 0 588.849 23.447 Q 587.259 23.2 585.3 23.2 A 17.606 17.606 0 0 0 581.804 23.535 A 14.713 14.713 0 0 0 579.625 24.15 A 15.661 15.661 0 0 0 576.823 25.498 A 13.084 13.084 0 0 0 575.2 26.675 A 11.612 11.612 0 0 0 572.63 29.733 A 11.015 11.015 0 0 0 572.325 30.3 Q 571.3 32.35 571.3 34.6 A 9.287 9.287 0 0 0 571.506 36.609 A 6.638 6.638 0 0 0 572.55 39.025 A 10.486 10.486 0 0 0 575.196 41.619 A 12.382 12.382 0 0 0 575.825 42.025 A 20.543 20.543 0 0 0 578.581 43.41 A 25.625 25.625 0 0 0 580.45 44.1 Q 583.05 44.95 585.75 45.775 Q 588.45 46.6 591.05 47.525 A 21.034 21.034 0 0 1 594.075 48.867 A 17.772 17.772 0 0 1 595.675 49.85 Q 597.7 51.25 598.95 53.275 Q 600.148 55.215 600.198 58.051 A 14.11 14.11 0 0 1 600.2 58.3 Q 600.2 61.3 599.125 63.95 Q 598.05 66.6 596 68.55 Q 593.95 70.5 590.975 71.65 A 16.795 16.795 0 0 1 587.151 72.61 A 22.086 22.086 0 0 1 584.2 72.8 Q 581.55 72.8 579.475 72.375 A 21.207 21.207 0 0 1 576.647 71.596 A 18.466 18.466 0 0 1 575.625 71.2 Q 573.85 70.45 572.325 69.35 A 35.6 35.6 0 0 1 569.687 67.244 A 39.646 39.646 0 0 1 569.3 66.9 L 569.6 66.6 A 4.156 4.156 0 0 1 569.689 66.514 Q 569.781 66.427 569.85 66.375 Q 569.934 66.312 570.126 66.302 A 1.445 1.445 0 0 1 570.2 66.3 A 0.628 0.628 0 0 1 570.43 66.353 Q 570.824 66.512 571.5 67.15 Q 572.105 67.721 573.037 68.382 A 27.494 27.494 0 0 0 574.025 69.05 A 14.551 14.551 0 0 0 575.578 69.915 Q 576.394 70.311 577.353 70.672 A 27.49 27.49 0 0 0 578.125 70.95 A 14.317 14.317 0 0 0 580.46 71.524 Q 581.62 71.714 582.953 71.773 A 28.034 28.034 0 0 0 584.2 71.8 A 21.098 21.098 0 0 0 587.394 71.569 A 15.673 15.673 0 0 0 590.575 70.75 A 14.738 14.738 0 0 0 593.491 69.277 A 12.368 12.368 0 0 0 595.25 67.875 Q 597.15 66.05 598.125 63.625 A 13.723 13.723 0 0 0 599.091 58.922 A 15.789 15.789 0 0 0 599.1 58.4 A 10.71 10.71 0 0 0 598.909 56.322 Q 598.658 55.053 598.077 54.041 A 6.485 6.485 0 0 0 597.85 53.675 A 10.941 10.941 0 0 0 594.887 50.707 A 12.624 12.624 0 0 0 594.575 50.5 A 19.446 19.446 0 0 0 591.67 48.977 A 23.806 23.806 0 0 0 589.95 48.325 Q 587.35 47.45 584.65 46.65 Q 581.95 45.85 579.35 44.95 A 22.553 22.553 0 0 1 576.395 43.695 A 18.63 18.63 0 0 1 574.725 42.725 Q 572.7 41.4 571.45 39.45 A 7.626 7.626 0 0 1 570.431 36.917 Q 570.214 35.913 570.201 34.755 A 13.279 13.279 0 0 1 570.2 34.6 Q 570.2 32.15 571.3 29.925 A 12.437 12.437 0 0 1 574.154 26.193 A 14.258 14.258 0 0 1 574.4 25.975 A 14.696 14.696 0 0 1 577.755 23.819 A 17.765 17.765 0 0 1 579.175 23.225 A 16.551 16.551 0 0 1 583.262 22.3 A 20.265 20.265 0 0 1 585.3 22.2 A 25.977 25.977 0 0 1 588.913 22.439 Q 590.902 22.719 592.6 23.325 Q 595.75 24.45 598.7 27 Z M 922.7 72 L 922.4 72 Q 921.7 72 921.7 71.2 L 921.5 61.75 A 27.304 27.304 0 0 1 916.379 67.588 A 24.528 24.528 0 0 1 913.525 69.675 Q 908.85 72.6 903.3 72.6 A 23.705 23.705 0 0 1 897.332 71.893 A 16.037 16.037 0 0 1 888.725 66.475 A 18.946 18.946 0 0 1 885.566 60.679 Q 883.728 55.45 883.7 47.835 A 64.228 64.228 0 0 1 883.7 47.6 A 36.931 36.931 0 0 1 884.397 40.317 A 32.524 32.524 0 0 1 885.05 37.65 A 24.947 24.947 0 0 1 887.265 32.316 A 21.485 21.485 0 0 1 889.1 29.575 Q 891.8 26.15 895.825 24.175 A 18.965 18.965 0 0 1 901.222 22.501 A 25.221 25.221 0 0 1 905.2 22.2 A 23.013 23.013 0 0 1 909.966 22.672 A 17.773 17.773 0 0 1 914.65 24.35 A 16.891 16.891 0 0 1 919.628 28.417 A 21.812 21.812 0 0 1 921.5 31 L 921.5 0 L 922.7 0 L 922.7 72 Z M 557.8 43.8 L 520 43.8 A 9.816 9.816 0 0 0 519.905 44.863 A 8.669 8.669 0 0 0 519.9 45.15 L 519.9 46.5 A 43.642 43.642 0 0 0 520.213 51.863 Q 520.551 54.591 521.255 56.961 A 26.774 26.774 0 0 0 521.35 57.275 A 25.401 25.401 0 0 0 523.106 61.575 A 19.726 19.726 0 0 0 525.475 65.125 Q 528.15 68.3 531.925 69.95 A 19.819 19.819 0 0 0 538.052 71.497 A 24.048 24.048 0 0 0 540.3 71.6 A 32.139 32.139 0 0 0 543.478 71.451 Q 545.659 71.234 547.425 70.7 Q 550.4 69.8 552.375 68.7 Q 554.35 67.6 555.375 66.7 A 14.702 14.702 0 0 1 555.734 66.394 Q 556.444 65.81 556.691 65.8 A 0.21 0.21 0 0 1 556.7 65.8 Q 556.9 65.8 557.1 66 L 557.3 66.2 Q 556.45 67.25 554.775 68.375 A 19.72 19.72 0 0 1 552.95 69.456 A 26.666 26.666 0 0 1 550.825 70.45 A 27.957 27.957 0 0 1 547.496 71.591 A 33.311 33.311 0 0 1 545.85 72 Q 543.15 72.6 540.3 72.6 A 24.64 24.64 0 0 1 535.231 72.099 A 19.824 19.824 0 0 1 531.25 70.825 Q 527.25 69.05 524.475 65.7 A 21.661 21.661 0 0 1 521.504 60.927 A 27.725 27.725 0 0 1 520.2 57.5 Q 518.7 52.65 518.7 46.5 A 35.054 35.054 0 0 1 519.159 40.718 A 28.505 28.505 0 0 1 520.15 36.625 A 23.592 23.592 0 0 1 522.4 31.645 A 20.167 20.167 0 0 1 524.35 28.95 Q 527.1 25.75 531.075 23.975 A 20.283 20.283 0 0 1 536.755 22.41 A 25.867 25.867 0 0 1 540.1 22.2 A 19.035 19.035 0 0 1 546.214 23.17 A 17.902 17.902 0 0 1 547.3 23.575 Q 550.65 24.95 553.125 27.65 A 18.071 18.071 0 0 1 556.02 31.942 A 22.393 22.393 0 0 1 557 34.275 A 23.365 23.365 0 0 1 558.113 38.919 A 31.859 31.859 0 0 1 558.4 43.3 A 0.565 0.565 0 0 1 558.38 43.454 A 0.397 0.397 0 0 1 558.225 43.675 A 0.665 0.665 0 0 1 557.936 43.79 A 0.885 0.885 0 0 1 557.8 43.8 Z M 976.3 43.8 L 938.5 43.8 A 9.816 9.816 0 0 0 938.405 44.863 A 8.669 8.669 0 0 0 938.4 45.15 L 938.4 46.5 A 43.642 43.642 0 0 0 938.713 51.863 Q 939.051 54.591 939.755 56.961 A 26.774 26.774 0 0 0 939.85 57.275 A 25.401 25.401 0 0 0 941.606 61.575 A 19.726 19.726 0 0 0 943.975 65.125 Q 946.65 68.3 950.425 69.95 A 19.819 19.819 0 0 0 956.552 71.497 A 24.048 24.048 0 0 0 958.8 71.6 A 32.139 32.139 0 0 0 961.978 71.451 Q 964.159 71.234 965.925 70.7 Q 968.9 69.8 970.875 68.7 Q 972.85 67.6 973.875 66.7 A 14.702 14.702 0 0 1 974.234 66.394 Q 974.944 65.81 975.191 65.8 A 0.21 0.21 0 0 1 975.2 65.8 Q 975.4 65.8 975.6 66 L 975.8 66.2 Q 974.95 67.25 973.275 68.375 A 19.72 19.72 0 0 1 971.45 69.456 A 26.666 26.666 0 0 1 969.325 70.45 A 27.957 27.957 0 0 1 965.996 71.591 A 33.311 33.311 0 0 1 964.35 72 Q 961.65 72.6 958.8 72.6 A 24.64 24.64 0 0 1 953.731 72.099 A 19.824 19.824 0 0 1 949.75 70.825 Q 945.75 69.05 942.975 65.7 A 21.661 21.661 0 0 1 940.004 60.927 A 27.725 27.725 0 0 1 938.7 57.5 Q 937.2 52.65 937.2 46.5 A 35.054 35.054 0 0 1 937.659 40.718 A 28.505 28.505 0 0 1 938.65 36.625 A 23.592 23.592 0 0 1 940.9 31.645 A 20.167 20.167 0 0 1 942.85 28.95 Q 945.6 25.75 949.575 23.975 A 20.283 20.283 0 0 1 955.255 22.41 A 25.867 25.867 0 0 1 958.6 22.2 A 19.035 19.035 0 0 1 964.714 23.17 A 17.902 17.902 0 0 1 965.8 23.575 Q 969.15 24.95 971.625 27.65 A 18.071 18.071 0 0 1 974.52 31.942 A 22.393 22.393 0 0 1 975.5 34.275 A 23.365 23.365 0 0 1 976.613 38.919 A 31.859 31.859 0 0 1 976.9 43.3 A 0.565 0.565 0 0 1 976.88 43.454 A 0.397 0.397 0 0 1 976.725 43.675 A 0.665 0.665 0 0 1 976.436 43.79 A 0.885 0.885 0 0 1 976.3 43.8 Z M 401.5 43.8 L 363.7 43.8 A 9.816 9.816 0 0 0 363.605 44.863 A 8.669 8.669 0 0 0 363.6 45.15 L 363.6 46.5 A 43.642 43.642 0 0 0 363.913 51.863 Q 364.251 54.591 364.955 56.961 A 26.774 26.774 0 0 0 365.05 57.275 A 25.401 25.401 0 0 0 366.806 61.575 A 19.726 19.726 0 0 0 369.175 65.125 Q 371.85 68.3 375.625 69.95 A 19.819 19.819 0 0 0 381.752 71.497 A 24.048 24.048 0 0 0 384 71.6 A 32.139 32.139 0 0 0 387.178 71.451 Q 389.359 71.234 391.125 70.7 Q 394.1 69.8 396.075 68.7 Q 398.05 67.6 399.075 66.7 A 14.702 14.702 0 0 1 399.434 66.394 Q 400.144 65.81 400.391 65.8 A 0.21 0.21 0 0 1 400.4 65.8 Q 400.6 65.8 400.8 66 L 401 66.2 Q 400.15 67.25 398.475 68.375 A 19.72 19.72 0 0 1 396.65 69.456 A 26.666 26.666 0 0 1 394.525 70.45 A 27.957 27.957 0 0 1 391.196 71.591 A 33.311 33.311 0 0 1 389.55 72 Q 386.85 72.6 384 72.6 A 24.64 24.64 0 0 1 378.931 72.099 A 19.824 19.824 0 0 1 374.95 70.825 Q 370.95 69.05 368.175 65.7 A 21.661 21.661 0 0 1 365.204 60.927 A 27.725 27.725 0 0 1 363.9 57.5 Q 362.4 52.65 362.4 46.5 A 35.054 35.054 0 0 1 362.859 40.718 A 28.505 28.505 0 0 1 363.85 36.625 A 23.592 23.592 0 0 1 366.1 31.645 A 20.167 20.167 0 0 1 368.05 28.95 Q 370.8 25.75 374.775 23.975 A 20.283 20.283 0 0 1 380.455 22.41 A 25.867 25.867 0 0 1 383.8 22.2 A 19.035 19.035 0 0 1 389.914 23.17 A 17.902 17.902 0 0 1 391 23.575 Q 394.35 24.95 396.825 27.65 A 18.071 18.071 0 0 1 399.72 31.942 A 22.393 22.393 0 0 1 400.7 34.275 A 23.365 23.365 0 0 1 401.813 38.919 A 31.859 31.859 0 0 1 402.1 43.3 A 0.565 0.565 0 0 1 402.08 43.454 A 0.397 0.397 0 0 1 401.925 43.675 A 0.665 0.665 0 0 1 401.636 43.79 A 0.885 0.885 0 0 1 401.5 43.8 Z M 451.1 23 L 451.4 23 L 451.4 90 L 450.2 90 L 450.2 61.75 A 27.304 27.304 0 0 1 445.079 67.588 A 24.528 24.528 0 0 1 442.225 69.675 Q 437.55 72.6 432 72.6 A 23.705 23.705 0 0 1 426.032 71.893 A 16.037 16.037 0 0 1 417.425 66.475 A 18.946 18.946 0 0 1 414.266 60.679 Q 412.428 55.45 412.4 47.835 A 64.228 64.228 0 0 1 412.4 47.6 A 36.931 36.931 0 0 1 413.097 40.317 A 32.524 32.524 0 0 1 413.75 37.65 A 24.947 24.947 0 0 1 415.965 32.316 A 21.485 21.485 0 0 1 417.8 29.575 Q 420.5 26.15 424.525 24.175 A 18.965 18.965 0 0 1 429.922 22.501 A 25.221 25.221 0 0 1 433.9 22.2 A 23.013 23.013 0 0 1 438.666 22.672 A 17.773 17.773 0 0 1 443.35 24.35 A 16.891 16.891 0 0 1 448.328 28.417 A 21.812 21.812 0 0 1 450.2 31 L 450.4 23.8 A 1.33 1.33 0 0 1 450.431 23.498 Q 450.527 23.086 450.922 23.015 A 1.002 1.002 0 0 1 451.1 23 Z M 618.1 62.7 L 618.1 26.1 L 610 26.1 A 1.452 1.452 0 0 1 609.753 26.081 Q 609.3 26.002 609.3 25.6 L 609.3 25.3 L 618.1 25.1 L 618.5 5.4 Q 618.5 5.15 618.625 4.925 A 0.474 0.474 0 0 1 618.728 4.795 Q 618.828 4.709 618.97 4.701 A 0.531 0.531 0 0 1 619 4.7 L 619.3 4.7 L 619.3 25.1 L 636 25.1 L 636 26.1 L 619.3 26.1 L 619.3 62.7 Q 619.3 65.2 619.925 66.925 Q 620.55 68.65 621.65 69.725 Q 622.75 70.8 624.2 71.3 A 9.305 9.305 0 0 0 626.891 71.792 A 10.651 10.651 0 0 0 627.3 71.8 A 11.495 11.495 0 0 0 629.095 71.667 A 8.318 8.318 0 0 0 630.975 71.15 Q 632.384 70.569 633.413 69.907 A 10.535 10.535 0 0 0 633.65 69.75 A 18.937 18.937 0 0 0 634.415 69.202 Q 634.783 68.923 635.085 68.66 A 9.054 9.054 0 0 0 635.425 68.35 A 6.607 6.607 0 0 1 635.684 68.113 Q 636.078 67.771 636.31 67.712 A 0.366 0.366 0 0 1 636.4 67.7 Q 636.6 67.7 636.8 67.9 L 637 68.1 A 10.302 10.302 0 0 1 635.708 69.516 A 12.131 12.131 0 0 1 635.175 69.975 Q 634.1 70.85 632.825 71.475 Q 631.55 72.1 630.125 72.45 Q 628.7 72.8 627.3 72.8 A 12.713 12.713 0 0 1 624.562 72.522 Q 622.158 71.992 620.55 70.45 Q 618.764 68.737 618.28 65.403 A 18.867 18.867 0 0 1 618.1 62.7 Z M 229.4 72 L 229.2 72 Q 228.5 72 228.5 71.2 L 228.2 63.25 A 56.53 56.53 0 0 1 225.181 66.193 A 48.595 48.595 0 0 1 224 67.225 Q 221.9 69 219.55 70.225 Q 217.2 71.45 214.5 72.125 A 22.132 22.132 0 0 1 211.273 72.671 A 28.667 28.667 0 0 1 208.5 72.8 A 15.134 15.134 0 0 1 204.214 72.167 A 16.855 16.855 0 0 1 204.075 72.125 Q 201.85 71.45 200.05 69.975 A 10.644 10.644 0 0 1 197.649 67.152 A 12.884 12.884 0 0 1 197.125 66.175 Q 196.106 64.068 196.01 61.12 A 19.111 19.111 0 0 1 196 60.5 Q 196 57.2 197.925 54.575 Q 199.85 51.95 203.825 50.1 Q 207.8 48.25 213.85 47.175 Q 218.916 46.275 225.56 45.988 A 138.905 138.905 0 0 1 228.2 45.9 L 228.2 39.6 A 29.896 29.896 0 0 0 227.989 35.963 A 22.233 22.233 0 0 0 227.35 32.7 Q 226.5 29.65 224.85 27.55 Q 223.2 25.45 220.7 24.325 A 12.502 12.502 0 0 0 217.472 23.389 A 16.764 16.764 0 0 0 214.9 23.2 Q 212.3 23.2 210.2 23.75 A 23.012 23.012 0 0 0 208.038 24.426 A 17.85 17.85 0 0 0 206.45 25.1 A 18.223 18.223 0 0 0 204.772 26.02 A 14.152 14.152 0 0 0 203.575 26.85 A 51.21 51.21 0 0 0 202.565 27.653 Q 202.109 28.026 201.71 28.372 A 29.645 29.645 0 0 0 201.45 28.6 Q 200.595 29.36 200.056 29.895 A 17.793 17.793 0 0 0 200 29.95 Q 199.526 30.424 199.275 30.49 A 0.298 0.298 0 0 1 199.2 30.5 A 0.36 0.36 0 0 1 199.065 30.471 Q 198.95 30.424 198.809 30.302 A 2.098 2.098 0 0 1 198.7 30.2 L 198.5 30 A 33.02 33.02 0 0 1 202.104 26.695 A 24.797 24.797 0 0 1 205.95 24.2 A 17.563 17.563 0 0 1 211.469 22.447 A 22.992 22.992 0 0 1 214.9 22.2 A 19.686 19.686 0 0 1 217.959 22.426 Q 219.832 22.72 221.375 23.4 Q 224.1 24.6 225.9 26.85 A 13.523 13.523 0 0 1 227.853 30.223 A 17.182 17.182 0 0 1 228.55 32.325 A 24.934 24.934 0 0 1 229.213 35.984 A 33.465 33.465 0 0 1 229.4 39.6 L 229.4 72 Z M 799.5 27.3 L 799.2 27.6 A 0.902 0.902 0 0 1 799.078 27.703 Q 799.005 27.754 798.933 27.778 A 0.419 0.419 0 0 1 798.8 27.8 Q 798.546 27.8 797.918 27.282 A 10.063 10.063 0 0 1 797.675 27.075 A 7.85 7.85 0 0 0 797.086 26.61 Q 796.358 26.084 795.275 25.5 A 16.215 16.215 0 0 0 793.863 24.83 Q 792.735 24.355 791.325 23.925 A 15.322 15.322 0 0 0 789.06 23.429 Q 787.484 23.2 785.6 23.2 A 22.726 22.726 0 0 0 780.835 23.68 A 18.29 18.29 0 0 0 777.1 24.9 Q 773.35 26.6 770.75 29.75 A 20.368 20.368 0 0 0 767.865 34.466 A 25.634 25.634 0 0 0 766.775 37.4 A 30.909 30.909 0 0 0 765.645 42.971 A 40.368 40.368 0 0 0 765.4 47.5 Q 765.4 53.204 766.73 57.626 A 25.858 25.858 0 0 0 766.775 57.775 A 24.46 24.46 0 0 0 768.505 62.018 A 19.199 19.199 0 0 0 770.7 65.325 Q 773.25 68.4 776.825 70 Q 780.4 71.6 784.8 71.6 A 28.154 28.154 0 0 0 787.664 71.463 Q 789.755 71.248 791.4 70.7 Q 793.52 69.993 795.054 69.163 A 14.113 14.113 0 0 0 795.85 68.7 A 24.878 24.878 0 0 0 796.861 68.032 Q 797.881 67.319 798.5 66.7 A 11.951 11.951 0 0 1 798.816 66.394 Q 799.453 65.803 799.698 65.8 Q 799.9 65.8 800.1 66 L 800.3 66.2 Q 799.685 67.101 798.601 68.019 A 15.122 15.122 0 0 1 798.1 68.425 A 15.748 15.748 0 0 1 796.322 69.612 A 20.767 20.767 0 0 1 794.65 70.475 A 21.959 21.959 0 0 1 792.099 71.459 A 27.729 27.729 0 0 1 790.15 72 A 21.945 21.945 0 0 1 786.289 72.558 A 25.807 25.807 0 0 1 784.8 72.6 A 22.839 22.839 0 0 1 779.889 72.092 A 18.727 18.727 0 0 1 776.25 70.9 Q 772.45 69.2 769.775 65.975 A 21.024 21.024 0 0 1 766.85 61.258 A 26.78 26.78 0 0 1 765.65 58.1 A 30.928 30.928 0 0 1 764.519 52.792 A 41.949 41.949 0 0 1 764.2 47.5 A 38.869 38.869 0 0 1 764.634 41.572 A 30.9 30.9 0 0 1 765.65 37.125 A 25.079 25.079 0 0 1 767.693 32.301 A 20.637 20.637 0 0 1 769.85 29.15 Q 772.6 25.85 776.575 24.025 A 19.913 19.913 0 0 1 782.402 22.396 A 25.282 25.282 0 0 1 785.6 22.2 A 23.756 23.756 0 0 1 789.806 22.556 A 18.316 18.316 0 0 1 793.525 23.625 A 21.776 21.776 0 0 1 797.488 25.729 A 18.557 18.557 0 0 1 799.5 27.3 Z M 992.2 72 L 991 72 L 991 23 L 991.3 23 Q 992 23 992 23.8 L 992.15 37.4 A 35.385 35.385 0 0 1 993.448 33.655 A 27.628 27.628 0 0 1 994.75 30.925 A 20.114 20.114 0 0 1 996.873 27.771 A 16.937 16.937 0 0 1 998.4 26.15 Q 1000.5 24.2 1003.175 23.2 A 15.622 15.622 0 0 1 1006.758 22.344 A 20.087 20.087 0 0 1 1009.2 22.2 A 20.252 20.252 0 0 1 1011.995 22.386 A 16.717 16.717 0 0 1 1013.65 22.7 Q 1015.7 23.2 1017.6 24.1 L 1017.4 24.5 A 8.082 8.082 0 0 0 1017.306 24.644 A 5.881 5.881 0 0 0 1017.225 24.775 Q 1017.15 24.9 1016.9 24.9 A 0.796 0.796 0 0 1 1016.755 24.884 Q 1016.518 24.84 1016.114 24.667 A 7.632 7.632 0 0 1 1016.075 24.65 Q 1015.689 24.482 1015.144 24.291 A 26.082 26.082 0 0 0 1014.575 24.1 Q 1013.867 23.87 1012.924 23.67 A 26.637 26.637 0 0 0 1012.325 23.55 A 13.325 13.325 0 0 0 1011.075 23.379 Q 1010.428 23.32 1009.697 23.305 A 24.507 24.507 0 0 0 1009.2 23.3 A 16.237 16.237 0 0 0 1004.291 24.01 A 13.137 13.137 0 0 0 998.6 27.6 A 22.664 22.664 0 0 0 995.382 32.052 Q 994.132 34.272 993.125 37.006 A 46.292 46.292 0 0 0 992.2 39.8 L 992.2 72 Z M 246.9 72 L 245.7 72 L 245.7 23 L 246 23 Q 246.7 23 246.7 23.8 L 246.85 37.4 A 35.385 35.385 0 0 1 248.148 33.655 A 27.628 27.628 0 0 1 249.45 30.925 A 20.114 20.114 0 0 1 251.573 27.771 A 16.937 16.937 0 0 1 253.1 26.15 Q 255.2 24.2 257.875 23.2 A 15.622 15.622 0 0 1 261.458 22.344 A 20.087 20.087 0 0 1 263.9 22.2 A 20.252 20.252 0 0 1 266.695 22.386 A 16.717 16.717 0 0 1 268.35 22.7 Q 270.4 23.2 272.3 24.1 L 272.1 24.5 A 8.082 8.082 0 0 0 272.006 24.644 A 5.881 5.881 0 0 0 271.925 24.775 Q 271.85 24.9 271.6 24.9 A 0.796 0.796 0 0 1 271.455 24.884 Q 271.218 24.84 270.814 24.667 A 7.632 7.632 0 0 1 270.775 24.65 Q 270.389 24.482 269.844 24.291 A 26.082 26.082 0 0 0 269.275 24.1 Q 268.567 23.87 267.624 23.67 A 26.637 26.637 0 0 0 267.025 23.55 A 13.325 13.325 0 0 0 265.775 23.379 Q 265.128 23.32 264.397 23.305 A 24.507 24.507 0 0 0 263.9 23.3 A 16.237 16.237 0 0 0 258.991 24.01 A 13.137 13.137 0 0 0 253.3 27.6 A 22.664 22.664 0 0 0 250.082 32.052 Q 248.832 34.272 247.825 37.006 A 46.292 46.292 0 0 0 246.9 39.8 L 246.9 72 Z M 814.2 0 L 815.4 0 L 815.4 72 L 814.2 72 L 814.2 0 Z M 178.3 0 L 179.5 0 L 179.5 72 L 178.3 72 L 178.3 0 Z M 450.2 60.15 L 450.2 32.55 Q 447.2 27.6 443.15 25.4 Q 439.1 23.2 433.9 23.2 A 23.849 23.849 0 0 0 429.51 23.585 A 17.55 17.55 0 0 0 424.95 25.075 Q 421.15 26.95 418.625 30.25 A 21.79 21.79 0 0 0 415.555 35.847 A 26.172 26.172 0 0 0 414.85 38 A 33.779 33.779 0 0 0 413.699 44.758 A 40.131 40.131 0 0 0 413.6 47.6 Q 413.6 59.8 418.275 65.7 Q 422.95 71.6 432 71.6 Q 437.45 71.6 442.125 68.55 A 25.791 25.791 0 0 0 448.128 63.051 A 32.047 32.047 0 0 0 450.2 60.15 Z M 921.5 60.15 L 921.5 32.6 Q 918.957 28.57 915.985 26.393 A 14.369 14.369 0 0 0 914.3 25.325 A 17.743 17.743 0 0 0 908.152 23.387 A 22.615 22.615 0 0 0 905.2 23.2 A 23.849 23.849 0 0 0 900.81 23.585 A 17.55 17.55 0 0 0 896.25 25.075 Q 892.45 26.95 889.925 30.25 A 21.79 21.79 0 0 0 886.855 35.847 A 26.172 26.172 0 0 0 886.15 38 A 33.779 33.779 0 0 0 884.999 44.758 A 40.131 40.131 0 0 0 884.9 47.6 Q 884.9 59.8 889.575 65.7 Q 894.25 71.6 903.3 71.6 Q 908.75 71.6 913.425 68.55 A 25.791 25.791 0 0 0 919.428 63.051 A 32.047 32.047 0 0 0 921.5 60.15 Z M 310.6 3 L 310.6 37.2 L 324.7 37.2 A 37.391 37.391 0 0 0 329.594 36.894 A 28.471 28.471 0 0 0 333.975 35.975 Q 338.1 34.75 341.025 32.475 Q 343.95 30.2 345.525 26.925 A 15.922 15.922 0 0 0 346.961 21.887 A 19.995 19.995 0 0 0 347.1 19.5 Q 347.1 10.95 341.55 6.975 Q 337.442 4.033 330.676 3.268 A 45.3 45.3 0 0 0 325.6 3 L 310.6 3 Z M 56.5 23 L 57.7 23 L 57.7 72 L 56.5 72 L 56.5 23 Z M 156.1 23 L 157.3 23 L 157.3 72 L 156.1 72 L 156.1 23 Z M 363.75 42.9 L 401 42.9 A 29.697 29.697 0 0 0 400.714 38.683 A 21.941 21.941 0 0 0 399.7 34.475 A 19.256 19.256 0 0 0 397.942 30.76 A 15.785 15.785 0 0 0 396.075 28.3 Q 393.75 25.8 390.6 24.5 Q 387.45 23.2 383.8 23.2 A 23.416 23.416 0 0 0 379.372 23.602 A 18.765 18.765 0 0 0 375.875 24.625 Q 372.35 26.05 369.8 28.625 A 18.843 18.843 0 0 0 366.279 33.627 A 22.159 22.159 0 0 0 365.725 34.85 A 26.907 26.907 0 0 0 364.088 40.484 A 32.191 32.191 0 0 0 363.75 42.9 Z M 938.55 42.9 L 975.8 42.9 A 29.697 29.697 0 0 0 975.514 38.683 A 21.941 21.941 0 0 0 974.5 34.475 A 19.256 19.256 0 0 0 972.742 30.76 A 15.785 15.785 0 0 0 970.875 28.3 Q 968.55 25.8 965.4 24.5 Q 962.25 23.2 958.6 23.2 A 23.416 23.416 0 0 0 954.172 23.602 A 18.765 18.765 0 0 0 950.675 24.625 Q 947.15 26.05 944.6 28.625 A 18.843 18.843 0 0 0 941.079 33.627 A 22.159 22.159 0 0 0 940.525 34.85 A 26.907 26.907 0 0 0 938.888 40.484 A 32.191 32.191 0 0 0 938.55 42.9 Z M 520.05 42.9 L 557.3 42.9 A 29.697 29.697 0 0 0 557.014 38.683 A 21.941 21.941 0 0 0 556 34.475 A 19.256 19.256 0 0 0 554.242 30.76 A 15.785 15.785 0 0 0 552.375 28.3 Q 550.05 25.8 546.9 24.5 Q 543.75 23.2 540.1 23.2 A 23.416 23.416 0 0 0 535.672 23.602 A 18.765 18.765 0 0 0 532.175 24.625 Q 528.65 26.05 526.1 28.625 A 18.843 18.843 0 0 0 522.579 33.627 A 22.159 22.159 0 0 0 522.025 34.85 A 26.907 26.907 0 0 0 520.388 40.484 A 32.191 32.191 0 0 0 520.05 42.9 Z M 228.2 62 L 228.2 46.9 Q 214.882 47.323 207.374 49.837 A 27.655 27.655 0 0 0 204.825 50.825 Q 197.2 54.25 197.2 60.5 A 14.962 14.962 0 0 0 197.38 62.883 Q 197.619 64.363 198.175 65.575 A 11.01 11.01 0 0 0 199.543 67.832 A 9.36 9.36 0 0 0 200.725 69.075 Q 202.3 70.45 204.325 71.125 Q 206.35 71.8 208.5 71.8 A 25.684 25.684 0 0 0 211.982 71.574 A 19.883 19.883 0 0 0 214.75 71 A 23.41 23.41 0 0 0 219.003 69.337 A 21.229 21.229 0 0 0 219.9 68.85 Q 222.25 67.5 224.275 65.725 Q 226.3 63.95 228.2 62 Z M 158.944 6.331 A 2.392 2.392 0 0 0 159.5 4.8 A 2.601 2.601 0 0 0 159.264 3.693 A 2.827 2.827 0 0 0 158.625 2.825 Q 157.75 2 156.7 2 A 2.804 2.804 0 0 0 155.835 2.131 A 2.755 2.755 0 0 0 154.725 2.825 Q 153.9 3.65 153.9 4.8 A 2.439 2.439 0 0 0 154.176 5.939 A 2.993 2.993 0 0 0 154.725 6.675 Q 155.55 7.5 156.7 7.5 A 2.543 2.543 0 0 0 157.885 7.209 A 3.283 3.283 0 0 0 158.625 6.675 A 3.368 3.368 0 0 0 158.944 6.331 Z M 59.344 6.331 A 2.392 2.392 0 0 0 59.9 4.8 A 2.601 2.601 0 0 0 59.664 3.693 A 2.827 2.827 0 0 0 59.025 2.825 Q 58.15 2 57.1 2 A 2.804 2.804 0 0 0 56.235 2.131 A 2.755 2.755 0 0 0 55.125 2.825 Q 54.3 3.65 54.3 4.8 A 2.439 2.439 0 0 0 54.576 5.939 A 2.993 2.993 0 0 0 55.125 6.675 Q 55.95 7.5 57.1 7.5 A 2.543 2.543 0 0 0 58.285 7.209 A 3.283 3.283 0 0 0 59.025 6.675 A 3.368 3.368 0 0 0 59.344 6.331 Z" vector-effect="non-scaling-stroke" transform="matrix(1.37579 0 0 1.37579 15 25)" stroke-linecap="round" fill-rule="evenodd" font-size="12" stroke="#000"/>
</svg>
